<svg xmlns="http://www.w3.org/2000/svg" x="0px" y="0px"
width="100" height="100"
viewBox="0 0 172 172"
style=" fill:#000000;"><g fill="none" fill-rule="nonzero" stroke="none" stroke-width="1" stroke-linecap="butt" stroke-linejoin="miter" stroke-miterlimit="10" stroke-dasharray="" stroke-dashoffset="0" font-family="none" font-weight="none" font-size="none" text-anchor="none" style="mix-blend-mode: normal"><path d="M0,172v-172h172v172z" fill="none"></path><g fill="#e67e22"><path d="M86,48.16c-36.9886,0 -67.08,15.46447 -67.08,34.47391v16.11828c0,18.09268 26.95756,30.24781 67.08,30.24781c40.12244,0 67.08,-12.15513 67.08,-30.24781v-16.11828c0,-19.00944 -30.0914,-34.47391 -67.08,-34.47391zM86,51.6c32.6284,0 59.5876,12.03745 63.21336,27.48305c-1.1266,5.51088 -4.19916,10.88854 -10.07812,11.92914c-1.96768,0.34744 -4.02725,-0.15211 -6.20477,-0.68531c-2.70556,-0.6622 -5.50722,-1.35114 -8.25062,-0.31914c-2.51808,0.946 -4.33545,3.52229 -5.11633,7.24953c-2.01068,9.58556 -5.17051,13.62691 -9.95383,12.71187c-0.4042,-0.0774 -0.80246,-0.21876 -1.17914,-0.41656c-1.59788,-0.83764 -2.61104,-2.4865 -3.43664,-3.96742c-0.28896,-0.51772 -0.56136,-1.05898 -0.83312,-1.59906c-0.84108,-1.6684 -1.71129,-3.39192 -3.15781,-4.72664c-1.94876,-1.7974 -4.30261,-2.8351 -6.62805,-2.91594c-3.1906,-0.11008 -6.31676,1.11843 -9.0636,2.20375l-0.37625,0.14445c-4.171,1.64432 -6.79472,1.44029 -8.78476,-0.67187c-0.46612,-0.49708 -0.84385,-1.0872 -1.24633,-1.71328l-0.22508,-0.34938c-1.52392,-2.33576 -3.79671,-3.44777 -6.06367,-2.97305c-3.1648,0.65876 -5.14127,4.00351 -6.72883,6.69187c-0.43688,0.74132 -0.8554,1.44386 -1.26648,2.04586l-0.21164,0.30906c-0.46096,0.67252 -0.91746,1.34859 -1.40422,2.00219c-1.52908,2.0554 -3.63098,4.43835 -6.5911,4.34031c-1.12316,-0.02408 -2.20907,-0.40592 -3.05703,-1.075c-1.42244,-1.12488 -2.05605,-2.95184 -2.33812,-4.28656c-0.60372,-2.85348 -0.59157,-5.89388 -0.57781,-8.83852v-1.29336c0,-2.48024 -0.674,-4.41844 -1.94508,-5.60008c-1.06124,-0.98728 -2.48873,-1.419 -4.23281,-1.29c-0.67596,0.04988 -1.31217,0.20834 -1.87117,0.34938l-1.1825,0.3057c-3.92504,1.0234 -7.98569,2.08375 -10.90453,-1.03805c-2.10012,-2.24632 -2.75608,-5.54713 -2.98312,-8.30773c5.20472,-14.57872 31.32018,-25.69922 62.67922,-25.69922zM83.54094,55.05008c-0.45924,-0.0688 -0.90206,0.25943 -0.97086,0.72899c-0.06708,0.47128 0.25771,0.90378 0.72899,0.97086l6.02,0.86c0.03956,0.00516 0.08474,0.01008 0.1243,0.01008c0.41968,0 0.78464,-0.31078 0.84656,-0.73906c0.06708,-0.46956 -0.25771,-0.90378 -0.72899,-0.97086zM110.77875,56.7768c-0.10935,0.02075 -0.21817,0.06229 -0.31578,0.12765l-5.16,3.44c-0.39388,0.26316 -0.50168,0.79698 -0.23852,1.19258c0.16684,0.2494 0.43863,0.38297 0.71555,0.38297c0.16512,0 0.33083,-0.04641 0.47703,-0.14445l5.16,-3.44c0.39388,-0.26316 0.50168,-0.79698 0.23852,-1.19258c-0.19866,-0.2967 -0.54874,-0.42841 -0.8768,-0.36617zM54.24719,60.20336c-0.11145,-0.00881 -0.22621,0.00333 -0.3393,0.04031c-0.45064,0.14964 -0.69386,0.6378 -0.54422,1.08844l1.72,5.16c0.12212,0.3612 0.45685,0.58789 0.81633,0.58789c0.09116,0 0.18095,-0.01271 0.27211,-0.04367c0.45064,-0.14964 0.69386,-0.6378 0.54422,-1.08844l-1.72,-5.16c-0.11352,-0.33798 -0.41479,-0.55809 -0.74914,-0.58453zM86,63.64c-11.67364,0 -24.08,3.01344 -24.08,8.6c0,5.58656 12.40636,8.6 24.08,8.6c7.22228,0 14.71543,-1.15606 19.38695,-3.35937c0.03096,0.00344 0.06146,0.02016 0.0907,0.02016c0.30788,0 0.59942,-0.17127 0.7525,-0.46023c2.37532,-1.29 3.84984,-2.89135 3.84984,-4.80055c0,-5.58656 -12.40636,-8.6 -24.08,-8.6zM86,65.36c13.17692,0 22.36,3.62576 22.36,6.88c0,1.13176 -1.12886,2.30338 -3.13094,3.35602c-4.70592,-2.13108 -11.64558,-3.35602 -19.22906,-3.35602c-7.55768,0 -14.5247,1.2233 -19.23578,3.35266c-1.99692,-1.05264 -3.12422,-2.22262 -3.12422,-3.35266c0,-3.25424 9.18308,-6.88 22.36,-6.88zM122.84563,68.81008c-0.33209,0.05136 -0.61361,0.29592 -0.69875,0.64164l-1.72,6.88c-0.11524,0.45924 0.16216,0.92617 0.62484,1.04141c0.07052,0.0172 0.13948,0.02688 0.20828,0.02688c0.387,0 0.73681,-0.25956 0.83312,-0.65172l1.72,-6.88c0.11352,-0.46096 -0.16388,-0.92617 -0.62484,-1.04141c-0.11653,-0.02967 -0.23196,-0.03392 -0.34266,-0.0168zM38.53875,72.2568c-0.10935,0.02075 -0.21817,0.06229 -0.31578,0.12765l-5.16,3.44c-0.39388,0.26316 -0.50168,0.79698 -0.23852,1.19258c0.16684,0.2494 0.43863,0.38297 0.71555,0.38297c0.16512,0 0.33083,-0.04641 0.47703,-0.14445l5.16,-3.44c0.39388,-0.26316 0.50168,-0.79698 0.23852,-1.19258c-0.19866,-0.2967 -0.54874,-0.42841 -0.8768,-0.36617zM86,73.96c6.48268,0 12.65382,0.95764 17.06562,2.5968c-3.96976,1.49296 -9.92247,2.5632 -17.06562,2.5632c-7.14832,0 -13.10594,-1.07188 -17.0757,-2.56656c4.41352,-1.63916 10.61538,-2.59344 17.0757,-2.59344zM134.85203,75.6968c-0.21586,0.04278 -0.41514,0.16751 -0.54758,0.36617c-0.26316,0.3956 -0.15708,0.92942 0.23852,1.19258l5.16,3.44c0.1462,0.09804 0.31191,0.14445 0.47703,0.14445c0.27692,0 0.54871,-0.13357 0.71555,-0.38297c0.26316,-0.3956 0.15708,-0.92942 -0.23852,-1.19258l-5.16,-3.44c-0.19608,-0.13072 -0.42914,-0.17044 -0.645,-0.12765zM22.40031,81.88477c0.52116,1.763 1.32967,3.48593 2.64719,4.89461c3.61888,3.87 8.39054,2.62923 12.59766,1.53187l1.1657,-0.30234c0.51772,-0.129 1.05251,-0.26278 1.58227,-0.30234c1.25044,-0.0946 2.23441,0.18804 2.93273,0.83648c1.1524,1.06984 1.39414,2.94891 1.39414,4.33695l-0.00336,1.28664c-0.01376,3.03408 -0.02843,6.17233 0.61141,9.20469c0.48848,2.31168 1.50973,4.13714 2.95625,5.28094c1.14036,0.89956 2.59368,1.41185 4.08836,1.44453c3.67908,0.07224 6.23543,-2.64834 8.00875,-5.0357c0.50052,-0.67252 0.96981,-1.3645 1.44453,-2.05594l0.21164,-0.30906c0.43172,-0.62952 0.86943,-1.36584 1.32695,-2.14328c1.4878,-2.5198 3.17668,-5.37495 5.59672,-5.87891c2.30824,-0.47816 3.85345,1.58227 4.27313,2.22727l0.21836,0.3393c0.42656,0.6622 0.86497,1.35119 1.44117,1.96523c3.26112,3.46064 7.64905,2.28204 10.66938,1.0918l0.37625,-0.14781c2.7176,-1.075 5.53004,-2.18773 8.37492,-2.08281c1.88512,0.06708 3.89913,0.9643 5.52281,2.46242c1.21604,1.12316 1.97652,2.63485 2.78492,4.23617c0.28208,0.56244 0.56572,1.12281 0.86672,1.66289c1.01652,1.82148 2.21923,3.64481 4.13875,4.65273c0.52632,0.27692 1.08341,0.47281 1.65617,0.58117c0.56072,0.10664 1.0983,0.15789 1.60914,0.15789c7.37536,0 9.59163,-10.57416 10.3536,-14.2068c0.38012,-1.81288 1.41153,-5.00249 4.03797,-5.98977c2.2446,-0.8428 4.67149,-0.25327 7.23945,0.37625c2.25492,0.55212 4.58823,1.12499 6.91023,0.71219c5.16,-0.9116 8.40658,-4.65115 10.20914,-9.09047v10.05797c-2.12936,6.27456 -8.22466,11.95556 -17.71734,16.34672c-11.95056,5.52636 -28.22775,8.59871 -45.83195,8.65375c-8.6602,0.0258 -17.06041,-0.67897 -24.87953,-2.09625c-0.46096,-0.086 -0.91509,0.22419 -1.0011,0.69203c-0.08428,0.46784 0.22419,0.91509 0.69203,1.00109c7.77956,1.40696 16.09248,2.12312 24.71828,2.12312h0.47703c17.845,-0.05504 34.37342,-3.18708 46.54414,-8.81836c8.14936,-3.77024 13.918,-8.50287 16.99508,-13.79359v0.96414c0,15.78272 -26.1698,26.80781 -63.64,26.80781c-37.4702,0 -63.64,-11.02337 -63.64,-26.80781v-0.56101c3.77024,6.46032 11.59457,11.97746 22.93109,16.00742c0.09632,0.0344 0.19259,0.05039 0.28891,0.05039c0.35432,0 0.68405,-0.21849 0.80961,-0.57109c0.15996,-0.4472 -0.0735,-0.94191 -0.5207,-1.10188c-12.70048,-4.51328 -20.94955,-11.12714 -23.50891,-18.6143v-11.32781c0,-0.25112 0.02827,-0.49974 0.04031,-0.74914zM52.29875,82.5768c-0.10935,0.02075 -0.21817,0.06229 -0.31578,0.12765c-0.39388,0.26316 -0.50168,0.79698 -0.23852,1.19258l3.44,5.16c0.16684,0.2494 0.43863,0.38297 0.71555,0.38297c0.16512,0 0.33083,-0.04641 0.47703,-0.14445c0.39388,-0.26316 0.50168,-0.79698 0.23852,-1.19258l-3.44,-5.16c-0.19866,-0.2967 -0.54874,-0.42841 -0.8768,-0.36617zM85.19711,87.72336c-0.33411,-0.02072 -0.66645,0.15504 -0.82641,0.47367c-0.21156,0.42484 -0.03851,0.93899 0.38633,1.15227l6.88,3.44c0.12384,0.0602 0.25397,0.0907 0.38297,0.0907c0.31476,0 0.61794,-0.17267 0.7693,-0.47367c0.21156,-0.42484 0.04187,-0.94407 -0.38297,-1.15563l-6.88,-3.44c-0.10578,-0.05246 -0.21785,-0.08044 -0.32922,-0.08734zM112.52563,92.89008c-0.33209,0.05136 -0.61361,0.29592 -0.69875,0.64164l-1.72,6.88c-0.11524,0.45924 0.16216,0.92617 0.62484,1.04141c0.07052,0.0172 0.13948,0.02688 0.20828,0.02688c0.387,0 0.73681,-0.25956 0.83312,-0.65172l1.72,-6.88c0.11352,-0.46096 -0.16388,-0.92617 -0.62484,-1.04141c-0.11653,-0.02967 -0.23196,-0.03392 -0.34266,-0.0168zM50.6325,114.18516c-0.33427,0.03999 -0.62216,0.27627 -0.71891,0.61813c-0.13072,0.4558 0.13037,0.9342 0.58789,1.06492c1.67528,0.47988 3.42519,0.93103 5.20367,1.34039c0.06536,0.01548 0.12784,0.02352 0.19148,0.02352c0.39388,0 0.74868,-0.26948 0.83984,-0.66852c0.10836,-0.46268 -0.18232,-0.92469 -0.645,-1.03133c-1.75096,-0.40248 -3.47029,-0.84559 -5.11633,-1.31687c-0.11653,-0.03397 -0.23123,-0.04356 -0.34266,-0.03023z"></path></g></g></svg>