<svg xmlns="http://www.w3.org/2000/svg" x="0px" y="0px"
width="32" height="32"
viewBox="0 0 172 172"
style=" fill:#000000;"><g fill="none" fill-rule="nonzero" stroke="none" stroke-width="1" stroke-linecap="butt" stroke-linejoin="miter" stroke-miterlimit="10" stroke-dasharray="" stroke-dashoffset="0" font-family="none" font-weight="none" font-size="none" text-anchor="none" style="mix-blend-mode: normal"><path d="M0,172v-172h172v172z" fill="none"></path><g fill="#e67e22"><path d="M59.125,16.125v21.5h10.75v-21.5zM80.625,21.5v16.125h10.75v-16.125zM26.20313,43l0.67188,5.87891l9.74219,92.55078c0.86084,8.16748 7.91553,14.44531 16.125,14.44531h50.39063c8.20947,0 15.26416,-6.27783 16.125,-14.44531l2.51953,-23.17969h12.59766c8.83935,0 16.125,-7.28565 16.125,-16.125v-16.125c0,-8.83935 -7.28565,-16.125 -16.125,-16.125h-7.55859l2.18359,-20.99609l0.67188,-5.87891zM38.29688,53.75h79.28125l-9.07031,86.50391c-0.29394,2.79248 -2.58252,4.87109 -5.375,4.87109h-50.39062c-2.79248,0 -5.08105,-2.07861 -5.375,-4.87109zM125.64063,80.625h8.73438c3.04443,0 5.375,2.33057 5.375,5.375v16.125c0,3.04443 -2.33057,5.375 -5.375,5.375h-11.58984z"></path></g></g></svg>