<svg xmlns="http://www.w3.org/2000/svg" x="0px" y="0px"
width="50" height="50"
viewBox="0 0 172 172"
style=" fill:#000000;"><g fill="none" fill-rule="nonzero" stroke="none" stroke-width="1" stroke-linecap="butt" stroke-linejoin="miter" stroke-miterlimit="10" stroke-dasharray="" stroke-dashoffset="0" font-family="none" font-weight="none" font-size="none" text-anchor="none" style="mix-blend-mode: normal"><path d="M0,172v-172h172v172z" fill="none"></path><g fill="#e67e22"><path d="M99.115,0c-1.53187,0.28219 -2.67406,1.57219 -2.795,3.1175l-0.645,7.74h-20.9625l-0.7525,-7.6325c-0.22844,-1.77375 -1.76031,-3.07719 -3.5475,-3.01l-25.2625,1.075c-0.95406,0.05375 -1.84094,0.49719 -2.45906,1.23625c-0.60469,0.72563 -0.88687,1.67969 -0.76594,2.63375l0.7525,7.095l-23.1125,4.1925c-1.81406,0.3225 -3.05031,2.0425 -2.795,3.87l6.235,41.6025h-9.245c-0.1075,0 -0.215,0 -0.3225,0c-1.03469,0.08063 -1.97531,0.63156 -2.55312,1.49156c-0.57781,0.84656 -0.7525,1.92156 -0.45688,2.91594l28.9175,103.2c0.43,1.47813 1.78719,2.48594 3.3325,2.4725h86.645c1.54531,0.01344 2.9025,-0.99437 3.3325,-2.4725l28.9175,-103.2c0.30906,-1.04812 0.09406,-2.17687 -0.55094,-3.03687c-0.65844,-0.87344 -1.69313,-1.38406 -2.78156,-1.37063h-10.6425l5.6975,-30.96c0.18813,-0.94062 -0.04031,-1.92156 -0.60469,-2.70094c-0.57781,-0.77938 -1.45125,-1.27656 -2.40531,-1.38406l-23.7575,-2.58l1.6125,-17.7375c0.13438,-1.8275 -1.19594,-3.42656 -3.01,-3.655l-25.0475,-2.9025c-0.3225,-0.04031 -0.645,-0.04031 -0.9675,0zM67.4025,7.2025l8.815,84.71c-8.86875,-1.78719 -15.11719,-5.87219 -19.6725,-10.4275l-6.665,-65.79c0,-0.06719 0,-0.14781 0,-0.215v-0.215c0.01344,-0.44344 -0.06719,-0.87344 -0.215,-1.29l-0.5375,-5.9125zM102.77,7.31l18.275,2.0425l-6.88,73.315c-4.4075,4.03125 -10.18562,7.59219 -18.1675,9.245zM75.465,17.7375h19.6725l-6.02,74.9275c-1.03469,0.05375 -2.02906,0.215 -3.1175,0.215c-0.9675,0 -1.86781,-0.05375 -2.795,-0.1075zM43.3225,19.135l5.2675,51.2775c-1.73344,-3.41312 -2.58,-5.9125 -2.58,-5.9125c-0.38969,-1.51844 -1.76031,-2.58 -3.3325,-2.58h-12.685l-5.9125,-39.345zM125.8825,31.0675l19.995,2.2575l-5.2675,28.595h-11.2875c-1.57219,0 -2.94281,1.06156 -3.3325,2.58c0,0 -1.08844,3.78938 -4.085,8.7075zM18.275,68.8h22.0375c0.95406,2.72781 3.02344,7.99531 8.2775,14.2975c0.45688,0.55094 1.00781,1.06156 1.505,1.6125c0,0.04031 0,0.06719 0,0.1075c0.3225,0.86 0.98094,1.55875 1.8275,1.935c0.01344,0.01344 0.09406,-0.01344 0.1075,0c7.21594,6.93375 18.20781,13.0075 33.97,13.0075c18.51688,0 30.46281,-8.33125 37.41,-16.6625c5.25406,-6.30219 7.32344,-11.56969 8.2775,-14.2975h22.0375l-27.09,96.32h-81.27z"></path></g></g></svg>