<svg xmlns="http://www.w3.org/2000/svg" x="0px" y="0px"
width="64" height="64"
viewBox="0 0 172 172"
style=" fill:#000000;"><g fill="none" fill-rule="nonzero" stroke="none" stroke-width="1" stroke-linecap="butt" stroke-linejoin="miter" stroke-miterlimit="10" stroke-dasharray="" stroke-dashoffset="0" font-family="none" font-weight="none" font-size="none" text-anchor="none" style="mix-blend-mode: normal"><path d="M0,172v-172h172v172z" fill="none"></path><g fill="#e67e22"><path d="M86,10.07813c-18.67812,0 -34.26562,14.1099 -36.28125,32.78803c0,0.13437 -0.13333,0.13385 -0.2677,0.13385c-2.28438,0 -4.03125,1.74687 -4.03125,4.03125c0,2.28438 1.74687,4.03125 4.03125,4.03125c4.16563,0 7.79323,-3.09062 8.19635,-7.39062c1.6125,-14.64687 13.8401,-25.53125 28.3526,-25.53125c14.5125,0 26.7401,11.01875 28.3526,25.53125c0.40313,4.16562 4.03073,7.39063 8.19635,7.39063c2.28437,0 4.03125,-1.74687 4.03125,-4.03125c0,-2.28438 -1.74688,-4.03125 -4.03125,-4.03125c-0.13437,0 -0.2677,-0.13385 -0.2677,-0.13385c-2.01562,-18.67812 -17.60312,-32.78803 -36.28125,-32.78803zM49.04688,54.82605c-1.74687,0 -3.22605,0.94063 -3.76355,2.6875c-0.40312,0.94063 -0.26665,2.01458 0.13647,2.9552l35.74323,89.22552c0.80625,2.01563 2.68697,3.35938 4.83697,3.35938c2.15,0 4.1651,-1.34375 4.83697,-3.35937l35.8797,-89.35937c0.5375,-1.20938 0.40208,-2.68855 -0.40417,-3.76355c-0.80625,-1.075 -2.01562,-1.7453 -3.35937,-1.7453h-37.625c-2.28437,0 -4.03125,1.74687 -4.03125,4.03125v6.71875c0,1.47813 -1.20885,2.6875 -2.82135,2.6875c-2.28437,0 -4.16615,2.1479 -3.8974,4.56665c0.26875,2.15 2.14895,3.63022 4.29895,3.49585c5.77812,-0.13438 10.4823,-4.97187 10.4823,-10.75v-2.6875c13.16875,0 22.30678,13.3026 17.3349,25.6651l-20.69428,51.73437l-30.90625,-77.26562l16.79688,0.13385c2.41875,0 4.43438,-2.15 4.03125,-4.70312c-0.40313,-2.01562 -2.14947,-3.35937 -4.1651,-3.35937z"></path></g></g></svg>