<svg xmlns="http://www.w3.org/2000/svg" x="0px" y="0px"
width="100" height="100"
viewBox="0 0 172 172"
style=" fill:#000000;"><g fill="none" fill-rule="nonzero" stroke="none" stroke-width="1" stroke-linecap="butt" stroke-linejoin="miter" stroke-miterlimit="10" stroke-dasharray="" stroke-dashoffset="0" font-family="none" font-weight="none" font-size="none" text-anchor="none" style="mix-blend-mode: normal"><path d="M0,172v-172h172v172z" fill="none"></path><g fill="#e67e22"><path d="M51.6,22.36c-0.87949,0.00033 -1.61708,0.66402 -1.70992,1.53859c0,0 -0.86247,8.04033 -1.72336,16.79688c-0.86089,8.75654 -1.72672,18.02848 -1.72672,21.22453c0,5.99299 4.49624,10.77297 10.24273,11.67719c-0.07479,1.32724 -0.8194,14.53845 -1.63938,29.70024c-0.43007,7.95218 -0.85978,16.06721 -1.1825,22.52461c-0.32272,6.4574 -0.54086,11.14291 -0.54086,12.63797c0,6.15462 5.02538,11.18 11.18,11.18c6.15462,0 11.18,-5.02538 11.18,-11.18c0,-1.27254 -0.21818,-5.77222 -0.54086,-12.17773c-0.32268,-6.40551 -0.75245,-14.55505 -1.1825,-22.575c-0.82056,-15.30231 -1.56565,-28.77845 -1.63937,-30.11008c5.74649,-0.90422 10.24273,-5.68419 10.24273,-11.67719c0,-3.19605 -0.86583,-12.46799 -1.72672,-21.22453c-0.86089,-8.75654 -1.72336,-16.79688 -1.72336,-16.79688c-0.09284,-0.87458 -0.83043,-1.53827 -1.70992,-1.53859zM122.12,22.36c-13.27907,0 -24.08,10.80093 -24.08,24.08v39.56c0,5.06947 3.76634,9.11854 8.6,9.97062v7.13531c-0.00998,0.09054 -0.85423,7.82818 -1.70992,16.12836c-0.43034,4.1743 -0.86237,8.46906 -1.18586,11.96273c-0.32349,3.49368 -0.54422,6.05636 -0.54422,7.26297c0,6.15462 5.02538,11.18 11.18,11.18c6.15462,0 11.18,-5.02538 11.18,-11.18c0,-2.8014 -0.43311,-11.51257 -0.86336,-19.67922c-0.42859,-8.13515 -0.85334,-15.56011 -0.85664,-15.61773v-8.56305v-70.52c-0.00009,-0.94989 -0.77011,-1.71991 -1.72,-1.72zM53.15203,25.8h3.60797v28.38c-0.00439,0.31015 0.15856,0.59863 0.42645,0.75498c0.26789,0.15635 0.59921,0.15635 0.8671,0c0.26789,-0.15635 0.43084,-0.44484 0.42645,-0.75498v-28.38h5.16v28.38c-0.00439,0.31015 0.15856,0.59863 0.42645,0.75498c0.26789,0.15635 0.59921,0.15635 0.8671,0c0.26789,-0.15635 0.43084,-0.44484 0.42645,-0.75498v-28.38h5.16v19.78c-0.00439,0.31015 0.15856,0.59863 0.42645,0.75498c0.26789,0.15635 0.59921,0.15635 0.8671,0c0.26789,-0.15635 0.43084,-0.44484 0.42645,-0.75498v-19.78h3.60797c0.13665,1.28221 0.77846,7.29471 1.55875,15.23141c0.85911,8.73844 1.71328,18.38456 1.71328,20.88859c0,4.77071 -3.82929,8.6 -8.6,8.6c-0.47235,0.00027 -0.9238,0.19475 -1.24847,0.53784c-0.32466,0.34309 -0.49396,0.80458 -0.46818,1.27622c0,0 0.86011,15.52202 1.72,31.55797c0.42995,8.01797 0.86018,16.16302 1.1825,22.56156c0.32232,6.39854 0.53414,11.21065 0.53414,12.00641c0,4.2961 -3.4439,7.74 -7.74,7.74c-4.2961,0 -7.74,-3.4439 -7.74,-7.74c0,-1.11762 0.21186,-6.01791 0.53414,-12.46664c0.32228,-6.44873 0.75257,-14.56153 1.1825,-22.51117c0.85986,-15.89929 1.72,-31.14476 1.72,-31.14476c0.02674,-0.47221 -0.14213,-0.93459 -0.4669,-1.27843c-0.32477,-0.34383 -0.77678,-0.53878 -1.24974,-0.53899c-4.77071,0 -8.6,-3.82929 -8.6,-8.6c0,-2.50403 0.85417,-12.15015 1.71328,-20.88859c0.78029,-7.9367 1.4221,-13.94919 1.55875,-15.23141zM120.4,26.14602v66.73398h-12.04c-3.81905,0 -6.88,-3.06096 -6.88,-6.88v-39.56c0,-10.80955 8.35214,-19.3798 18.92,-20.29398zM71.36656,49.86656c-0.22809,0.00356 -0.44542,0.09758 -0.60418,0.26138c-0.15876,0.1638 -0.24595,0.38397 -0.24238,0.61205v3.44c-0.00439,0.31015 0.15856,0.59863 0.42645,0.75498c0.26789,0.15635 0.59921,0.15635 0.8671,0c0.26789,-0.15635 0.43084,-0.44484 0.42645,-0.75498v-3.44c0.00364,-0.23275 -0.08721,-0.45703 -0.25181,-0.62163c-0.1646,-0.1646 -0.38888,-0.25545 -0.62163,-0.25181zM110.08,94.6h10.32v8.6h-10.32v-3.44h7.74c0.31015,0.00439 0.59863,-0.15856 0.75498,-0.42645c0.15635,-0.26789 0.15635,-0.59921 0,-0.8671c-0.15635,-0.26789 -0.44484,-0.43084 -0.75498,-0.42645h-7.74zM109.90867,104.92h10.58539c0.07576,1.32832 0.38407,6.73013 0.7693,14.04219c0.42967,8.15702 0.85664,17.07385 0.85664,19.49781c0,4.2961 -3.4439,7.74 -7.74,7.74c-4.2961,0 -7.74,-3.4439 -7.74,-7.74c0,-0.68539 0.20927,-3.47486 0.53078,-6.94719c0.32151,-3.47233 0.74948,-7.75808 1.17914,-11.92578c0.77806,-7.54723 1.41835,-13.38038 1.55875,-14.66703z"></path></g></g></svg>