<svg xmlns="http://www.w3.org/2000/svg" x="0px" y="0px"
width="64" height="64"
viewBox="0 0 172 172"
style=" fill:#000000;"><g fill="none" fill-rule="nonzero" stroke="none" stroke-width="1" stroke-linecap="butt" stroke-linejoin="miter" stroke-miterlimit="10" stroke-dasharray="" stroke-dashoffset="0" font-family="none" font-weight="none" font-size="none" text-anchor="none" style="mix-blend-mode: normal"><path d="M0,172v-172h172v172z" fill="none"></path><g fill="#e67e22"><path d="M149.03027,2.70325c-4.42114,0.00002 -8.84165,1.68198 -12.19873,5.03906l-7.04419,7.04419c-1.04912,1.04955 -1.04912,2.75074 0,3.80029l1.01831,1.01831l-7.63208,7.63208c-15.94075,15.94206 -29.35339,20.83965 -42.62207,25.26355c-13.26868,4.4239 -26.53938,8.36974 -40.28625,22.11939l-33.48877,33.49402c-5.42793,5.43124 -5.42887,14.31271 0,19.74158l18.68127,18.68127l18.67603,18.68127c5.42856,5.43187 14.31302,5.43188 19.74158,0l33.48877,-33.48877c13.74696,-13.74835 17.69093,-27.02054 22.11413,-40.2915c4.42292,-13.2701 9.32393,-26.69053 25.26355,-42.63257v-0.00525l7.62683,-7.62683l1.03931,1.03931c1.04955,1.04912 2.75075,1.04912 3.80029,0l7.04944,-7.03894c0.00175,-0.00175 0.0035,-0.0035 0.00525,-0.00525c6.7127,-6.71905 6.70904,-17.6833 -0.00525,-24.39746l-3.02869,-3.02869c0,-0.00175 0,-0.0035 0,-0.00525c-3.3583,-3.35672 -7.77759,-5.03383 -12.19873,-5.03381zM149.03027,8.04675c3.03402,-0.00009 6.0673,1.16582 8.39844,3.49585l3.02869,3.02869c4.65934,4.65934 4.6608,12.13692 0,16.80212l-5.14404,5.1388l-3.47485,-3.47485c-1.04942,-1.05087 -2.75205,-1.05205 -3.80292,-0.00263c-1.05087,1.04942 -1.05205,2.75205 -0.00263,3.80292l0.5354,0.5354l-7.62683,7.62683c-5.77237,5.77284 -10.17697,11.30898 -13.6842,16.64465l-16.92285,-16.92285c5.33515,-3.50716 10.87275,-7.91183 16.64465,-13.6842l7.62683,-7.63208l5.04956,5.04956c0.67407,0.70207 1.67503,0.98487 2.61683,0.73935c0.9418,-0.24552 1.67729,-0.98101 1.92281,-1.92281c0.24552,-0.9418 -0.03728,-1.94275 -0.73935,-2.61683l-7.96802,-7.96802l5.14404,-5.14404c2.32967,-2.32967 5.36442,-3.49576 8.39844,-3.49585zM105.59985,47.58765l18.7915,18.79151c-4.7345,8.24652 -7.56134,16.01176 -10.00989,23.35815c-4.46099,13.38434 -7.91534,25.28831 -20.81763,38.19189l-33.48877,33.48877c-3.37569,3.37775 -8.7653,3.37775 -12.14099,0l-18.67603,-18.68127l-18.68128,-18.68127c-3.37538,-3.37538 -3.37632,-8.76261 0,-12.14099l33.48877,-33.49402c12.90238,-12.90498 24.79948,-16.36123 38.1814,-20.82288c7.34436,-2.44868 15.10802,-5.27633 23.3529,-10.00989zM90.88684,59.00427c-0.33172,-0.01171 -0.66275,0.03812 -0.97632,0.14697l-5.0968,1.70068c-1.40889,0.46818 -2.17149,1.98985 -1.70331,3.39874c0.46818,1.40889 1.98985,2.17149 3.39874,1.70331l5.10205,-1.70068c1.24879,-0.39499 2.03104,-1.6326 1.85198,-2.93007c-0.17905,-1.29747 -1.26726,-2.27696 -2.57635,-2.31896zM95.59521,73.63855c-0.69821,0.0208 -1.36089,0.31261 -1.84766,0.8136l-4.25171,4.25171c-0.70205,0.67408 -0.98483,1.67502 -0.73931,2.61681c0.24553,0.94179 0.981,1.67727 1.92279,1.92279c0.94179,0.24553 1.94273,-0.03726 2.61681,-0.73931l4.24646,-4.24646c0.79804,-0.77138 1.03985,-1.95396 0.60868,-2.97669c-0.43117,-1.02273 -1.44665,-1.67524 -2.55607,-1.64246zM110.32397,78.51489c-1.17666,-0.00686 -2.22099,0.75246 -2.57727,1.8739l-1.70068,5.0968c-0.30405,0.91146 -0.09867,1.9159 0.53877,2.63485c0.63743,0.71895 1.61004,1.04315 2.55136,0.85045c0.94132,-0.1927 1.70829,-0.87302 2.01192,-1.78462l1.69543,-5.0968c0.28632,-0.81913 0.15957,-1.72609 -0.34034,-2.43535c-0.49991,-0.70925 -1.31148,-1.13352 -2.17919,-1.13924zM77.9375,85.99475c-4.45319,0 -8.0625,3.60931 -8.0625,8.0625c0,4.45319 3.60931,8.0625 8.0625,8.0625c4.45319,0 8.0625,-3.60931 8.0625,-8.0625c0,-4.4505 -3.60931,-8.0625 -8.0625,-8.0625zM50.33289,88.6875c-0.69997,0.00977 -1.36851,0.29225 -1.86341,0.78735l-23.49463,23.49463c-1.04912,1.04955 -1.04912,2.75075 0,3.80029l30.25537,30.25537c1.04955,1.04912 2.75075,1.04912 3.80029,0l23.49463,-23.49463c1.04912,-1.04955 1.04912,-2.75075 0,-3.80029l-30.25537,-30.25537c-0.51291,-0.5131 -1.21146,-0.79707 -1.93689,-0.78735zM50.36963,95.17529l26.45508,26.45508l-19.69434,19.69434l-26.45508,-26.45508z"></path></g></g></svg>